<svg width="81" height="81" viewBox="0 0 81 81" fill="none" xmlns="http://www.w3.org/2000/svg">
<path d="M77.1504 32.5316C73.4109 29.5642 71.5042 24.9614 72.0504 20.2181C72.4073 17.1153 71.3458 14.0694 69.1379 11.8621C66.9292 9.65365 63.8836 8.59213 60.7814 8.94963C56.0364 9.49494 51.4355 7.58937 48.4681 3.84987C46.5271 1.4031 43.6229 0 40.5001 0C37.3771 0 34.4728 1.4031 32.5316 3.8496C29.5642 7.58882 24.9631 9.49494 20.2192 8.9499C17.1164 8.59158 14.0705 9.65365 11.8624 11.8618C9.65392 14.0694 8.5924 17.1153 8.94935 20.2186C9.49549 24.9612 7.58909 29.5639 3.84877 32.5318C1.4031 34.4731 0 37.3773 0 40.4999C0 43.6224 1.40282 46.5266 3.84932 48.4684C7.58909 51.4361 9.49549 56.0386 8.94935 60.7819C8.5924 63.8847 9.65393 66.9306 11.8618 69.1379C14.0705 71.3463 17.1186 72.4084 20.2184 72.0504C24.9614 71.5045 29.5642 73.4106 32.5316 77.1501C34.4726 79.5966 37.3768 81 40.5001 81C43.6229 81 46.5271 79.5969 48.4684 77.1504C51.4361 73.4112 56.0372 71.5053 60.7808 72.0501C63.8838 72.4068 66.9295 71.3463 69.1376 69.1382C71.3461 66.9306 72.4076 63.8847 72.0506 60.7816C71.5045 56.0388 73.4112 51.4358 77.1512 48.4681C79.5969 46.5269 81 43.6226 81 40.4999C81 37.3771 79.5966 34.4731 77.1504 32.5316Z" fill="#8DBA2B"/>
</svg>
