<svg width="117" height="41" viewBox="0 0 117 41" fill="none" xmlns="http://www.w3.org/2000/svg">
<path d="M5.38403 9.03994C5.03203 9.23194 4.10403 9.64794 2.60003 10.2879C2.34403 10.3839 1.94403 10.5439 1.40003 10.7679C0.85603 10.9919 0.40803 11.1999 0.0560303 11.3919V5.43995C3.89603 3.45594 6.24803 2.01594 7.11203 1.11994H13.4V39.9999H5.38403V9.03994Z" fill="#D8D8D8"/>
<path d="M30.8563 40.7199C27.4323 40.7199 24.8083 39.7119 22.9843 37.6959C21.1603 35.6799 20.2483 32.9759 20.2483 29.5839V11.9679C20.2483 8.41594 21.1283 5.63194 22.8883 3.61595C24.6803 1.56795 27.3363 0.543945 30.8563 0.543945C34.3763 0.543945 37.0163 1.56795 38.7763 3.61595C40.5363 5.63194 41.4163 8.41594 41.4163 11.9679V29.5839C41.4163 32.9439 40.4883 35.6479 38.6323 37.6959C36.8083 39.7119 34.2163 40.7199 30.8563 40.7199ZM30.8563 33.5679C31.8483 33.5679 32.4883 33.1519 32.7763 32.3199C33.0963 31.4879 33.2563 30.5119 33.2563 29.3919V12.1599C33.2563 10.8799 33.1123 9.82395 32.8243 8.99195C32.5683 8.12794 31.9123 7.69594 30.8563 7.69594C29.8003 7.69594 29.1283 8.11195 28.8403 8.94395C28.5843 9.77594 28.4563 10.8479 28.4563 12.1599V29.3919C28.4563 32.1759 29.2563 33.5679 30.8563 33.5679Z" fill="#D8D8D8"/>
<path d="M57.2469 40.7199C53.8229 40.7199 51.1989 39.7119 49.3749 37.6959C47.5509 35.6799 46.6389 32.9759 46.6389 29.5839V11.9679C46.6389 8.41594 47.5189 5.63194 49.2789 3.61595C51.0709 1.56795 53.7269 0.543945 57.2469 0.543945C60.7669 0.543945 63.4069 1.56795 65.1669 3.61595C66.9269 5.63194 67.8069 8.41594 67.8069 11.9679V29.5839C67.8069 32.9439 66.8789 35.6479 65.0229 37.6959C63.1989 39.7119 60.6069 40.7199 57.2469 40.7199ZM57.2469 33.5679C58.2389 33.5679 58.8789 33.1519 59.1669 32.3199C59.4869 31.4879 59.6469 30.5119 59.6469 29.3919V12.1599C59.6469 10.8799 59.5029 9.82395 59.2149 8.99195C58.9589 8.12794 58.3029 7.69594 57.2469 7.69594C56.1909 7.69594 55.5189 8.11195 55.2309 8.94395C54.9749 9.77594 54.8469 10.8479 54.8469 12.1599V29.3919C54.8469 32.1759 55.6469 33.5679 57.2469 33.5679Z" fill="#D8D8D8"/>
<path d="M81.6695 23.1999C78.4375 23.1999 76.1175 22.3679 74.7095 20.7039C73.3015 19.0399 72.5975 16.4319 72.5975 12.8799V11.1519C72.5975 7.56794 73.2695 4.99194 74.6135 3.42395C75.9895 1.85594 78.3415 1.07194 81.6695 1.07194C84.9975 1.07194 87.3495 1.85594 88.7255 3.42395C90.1015 4.95994 90.7895 7.50394 90.7895 11.0559V12.9759C90.7895 16.4959 90.0855 19.0879 88.6775 20.7519C87.2695 22.3839 84.9335 23.1999 81.6695 23.1999ZM98.3255 1.11994H102.646L90.7415 39.9999H86.3735L98.3255 1.11994ZM81.6695 18.2079C82.4695 18.2079 83.0615 17.9999 83.4455 17.5839C83.8295 17.1679 84.0695 16.5919 84.1655 15.8559C84.2615 15.0879 84.3095 13.9999 84.3095 12.5919V11.3919C84.3095 9.95195 84.2615 8.89594 84.1655 8.22394C84.0695 7.51995 83.8295 6.99195 83.4455 6.63994C83.0935 6.28794 82.5015 6.11195 81.6695 6.11195C80.8375 6.11195 80.2295 6.28794 79.8455 6.63994C79.4935 6.99195 79.2695 7.51995 79.1735 8.22394C79.0775 8.89594 79.0295 9.93595 79.0295 11.3439V12.6399C79.0295 14.6879 79.1895 16.1279 79.5095 16.9599C79.8295 17.7919 80.5495 18.2079 81.6695 18.2079ZM107.398 40.0479C104.166 40.0479 101.846 39.216 100.438 37.5519C99.0615 35.8879 98.3735 33.2799 98.3735 29.7279V27.9999C98.3735 24.4159 99.0455 21.8399 100.39 20.2719C101.766 18.7039 104.102 17.9199 107.398 17.9199C110.726 17.9199 113.078 18.7039 114.454 20.2719C115.83 21.8079 116.518 24.3519 116.518 27.9039V29.7759C116.518 33.2959 115.814 35.8879 114.406 37.5519C112.998 39.216 110.662 40.0479 107.398 40.0479ZM107.398 35.0559C108.198 35.0559 108.79 34.8479 109.174 34.4319C109.558 34.0159 109.798 33.4399 109.894 32.7039C109.99 31.9359 110.038 30.8639 110.038 29.4879V28.1919C110.038 26.7519 109.99 25.6959 109.894 25.0239C109.798 24.3519 109.558 23.8399 109.174 23.4879C108.822 23.1359 108.23 22.9599 107.398 22.9599C106.566 22.9599 105.958 23.1359 105.574 23.4879C105.222 23.8399 104.998 24.3679 104.902 25.0719C104.806 25.7439 104.758 26.7839 104.758 28.1919V29.4879C104.758 31.5359 104.918 32.9759 105.238 33.8079C105.558 34.6399 106.278 35.0559 107.398 35.0559Z" fill="#D8D8D8"/>
</svg>
