<svg width="81" height="31" viewBox="0 0 81 31" fill="none" xmlns="http://www.w3.org/2000/svg">
<path d="M1.13606 1.04001H4.20806L5.63206 8.57601L7.16806 1.04001H10.1281L10.3521 14H8.32006L8.08006 5.37601L6.57606 14H4.76806L3.16806 5.31201L2.97606 14H0.912058L1.13606 1.04001Z" fill="white"/>
<path d="M15.9377 14.192C14.5403 14.192 13.543 13.8347 12.9457 13.12C12.3483 12.3947 12.0497 11.328 12.0497 9.92001V5.10401C12.0497 3.69601 12.3483 2.64001 12.9457 1.93601C13.543 1.22135 14.5403 0.864014 15.9377 0.864014C17.3457 0.864014 18.3483 1.22135 18.9457 1.93601C19.5537 2.65068 19.8577 3.70668 19.8577 5.10401V9.92001C19.8577 11.328 19.5537 12.3947 18.9457 13.12C18.3483 13.8347 17.3457 14.192 15.9377 14.192ZM15.9377 12.16C16.343 12.16 16.6097 12.0267 16.7377 11.76C16.8657 11.4827 16.9297 11.1093 16.9297 10.64V4.40001C16.9297 3.92001 16.8657 3.54668 16.7377 3.28001C16.6097 3.01335 16.343 2.88001 15.9377 2.88001C15.5537 2.88001 15.2977 3.01868 15.1697 3.29601C15.0417 3.56268 14.9777 3.93068 14.9777 4.40001V10.64C14.9777 11.1093 15.0363 11.4827 15.1537 11.76C15.271 12.0267 15.5323 12.16 15.9377 12.16Z" fill="white"/>
<path d="M21.6007 1.04001H23.6167L26.2727 7.28001V1.04001H28.6407V14H26.7047L24.0487 7.28001V14H21.6007V1.04001Z" fill="white"/>
<path d="M30.5694 1.04001H36.3934V2.99201H33.4334V6.20801H35.6894V8.19201H33.4334V12.064H36.4254V14H30.5694V1.04001Z" fill="white"/>
<path d="M39.3577 8.70401L36.8937 1.04001H39.5977L40.8297 5.13601L41.9337 1.04001H44.5257L42.1097 8.70401V14H39.3577V8.70401Z" fill="white"/>
<path d="M45.6163 1.04001H48.9923C49.835 1.04001 50.5496 1.13068 51.1363 1.31201C51.7336 1.48268 52.2136 1.81868 52.5763 2.32001C52.939 2.82135 53.1203 3.52535 53.1203 4.43201C53.1203 5.20001 52.955 5.79735 52.6243 6.22401C52.2936 6.65068 51.8243 6.92268 51.2163 7.04001C51.963 7.13601 52.5336 7.45068 52.9283 7.98401C53.323 8.51735 53.5203 9.24268 53.5203 10.16C53.5203 12.72 52.2136 14 49.6003 14H45.6163V1.04001ZM49.0403 6.22401C49.6483 6.22401 50.059 6.08535 50.2723 5.80801C50.4963 5.53068 50.6083 5.09868 50.6083 4.51201C50.6083 4.00001 50.4696 3.61601 50.1923 3.36001C49.915 3.09335 49.5096 2.96001 48.9763 2.96001H48.4803V6.22401H49.0403ZM49.0883 12C49.6963 12 50.123 11.8507 50.3683 11.552C50.6243 11.2427 50.7523 10.7627 50.7523 10.112C50.7523 9.37601 50.6243 8.85868 50.3683 8.56001C50.123 8.26135 49.691 8.11201 49.0723 8.11201H48.4803V12H49.0883Z" fill="white"/>
<path d="M56.8153 1.04001H60.0793L62.4953 14H59.8553L59.4233 11.264H57.5193L57.0713 14H54.3673L56.8153 1.04001ZM59.1513 9.55201L58.4633 4.49601L57.7753 9.55201H59.1513Z" fill="white"/>
<path d="M67.3127 14.192C65.9047 14.192 64.902 13.824 64.3047 13.088C63.718 12.3413 63.4247 11.2693 63.4247 9.87201V5.20001C63.4247 3.77068 63.718 2.69335 64.3047 1.96801C64.8913 1.23201 65.894 0.864014 67.3127 0.864014C68.6674 0.864014 69.6274 1.18935 70.1927 1.84001C70.758 2.49068 71.0407 3.41335 71.0407 4.60801V5.72801H68.2407V4.43201C68.2407 3.93068 68.1874 3.54668 68.0807 3.28001C67.974 3.01335 67.718 2.88001 67.3127 2.88001C66.9073 2.88001 66.6407 3.02401 66.5127 3.31201C66.3847 3.58935 66.3207 3.97868 66.3207 4.48001V10.576C66.3207 11.088 66.3847 11.4827 66.5127 11.76C66.6514 12.0267 66.918 12.16 67.3127 12.16C67.7074 12.16 67.958 12.0267 68.0647 11.76C68.182 11.4827 68.2407 11.088 68.2407 10.576V9.21601H71.0407V10.336C71.0407 11.552 70.758 12.5013 70.1927 13.184C69.6274 13.856 68.6674 14.192 67.3127 14.192Z" fill="white"/>
<path d="M72.6163 1.04001H75.4803V6.33601L77.6563 1.04001H80.4563L78.0563 6.89601L80.5683 14H77.6563L75.7843 8.27201L75.4803 8.78401V14H72.6163V1.04001Z" fill="white"/>
<path d="M4.33606 30.192C3.05606 30.192 2.14406 29.8027 1.60006 29.024C1.05606 28.2453 0.784058 27.1413 0.784058 25.712V21.36C0.784058 19.8987 1.07739 18.784 1.66406 18.016C2.26139 17.248 3.26406 16.864 4.67206 16.864C6.02672 16.864 6.99739 17.1947 7.58406 17.856C8.17072 18.5173 8.46406 19.4507 8.46406 20.656V21.488H5.66406V20.432C5.66406 19.92 5.60539 19.536 5.48806 19.28C5.37072 19.0133 5.10939 18.88 4.70406 18.88C4.28806 18.88 4.01606 19.024 3.88806 19.312C3.77072 19.6 3.71206 20 3.71206 20.512V26.512C3.71206 27.024 3.78672 27.4293 3.93606 27.728C4.09606 28.016 4.37872 28.16 4.78406 28.16C5.53072 28.16 5.90406 27.6 5.90406 26.48V24.96H4.73606V23.28H8.48006V30H6.59206L6.43206 28.928C6.02672 29.7707 5.32806 30.192 4.33606 30.192Z" fill="white"/>
<path d="M14.0166 30.192C13.0459 30.192 12.2779 30.0373 11.7126 29.728C11.1472 29.408 10.7472 28.944 10.5126 28.336C10.2886 27.7173 10.1766 26.9333 10.1766 25.984V17.04H13.0086V26.416C13.0086 26.9387 13.0726 27.3547 13.2006 27.664C13.3392 27.9733 13.6112 28.128 14.0166 28.128C14.4219 28.128 14.6886 27.9733 14.8166 27.664C14.9446 27.3547 15.0086 26.9387 15.0086 26.416V17.04H17.8566V25.984C17.8566 26.9333 17.7392 27.7173 17.5046 28.336C17.2699 28.944 16.8699 29.408 16.3046 29.728C15.7499 30.0373 14.9872 30.192 14.0166 30.192Z" fill="white"/>
<path d="M21.3778 17.04H24.6418L27.0578 30H24.4178L23.9858 27.264H22.0818L21.6338 30H18.9298L21.3778 17.04ZM23.7138 25.552L23.0258 20.496L22.3378 25.552H23.7138Z" fill="white"/>
<path d="M28.3663 17.04H31.9343C33.353 17.04 34.425 17.2907 35.1503 17.792C35.8756 18.2933 36.2383 19.184 36.2383 20.464C36.2383 21.328 36.1263 22.016 35.9023 22.528C35.6783 23.04 35.2623 23.44 34.6543 23.728L36.4303 30H33.4703L32.0463 24.192H31.2303V30H28.3663V17.04ZM32.0303 22.544C32.6063 22.544 33.0063 22.3947 33.2303 22.096C33.465 21.7867 33.5823 21.328 33.5823 20.72C33.5823 20.1333 33.4756 19.696 33.2623 19.408C33.049 19.1093 32.681 18.96 32.1583 18.96H31.2303V22.544H32.0303Z" fill="white"/>
<path d="M39.7841 17.04H43.0481L45.4641 30H42.8241L42.3921 27.264H40.4881L40.0401 30H37.3361L39.7841 17.04ZM42.1201 25.552L41.4321 20.496L40.7441 25.552H42.1201Z" fill="white"/>
<path d="M46.7726 17.04H48.7886L51.4446 23.28V17.04H53.8126V30H51.8766L49.2206 23.28V30H46.7726V17.04Z" fill="white"/>
<path d="M56.9093 19.168H54.9573V17.04H61.7253V19.168H59.7893V30H56.9093V19.168Z" fill="white"/>
<path d="M62.8663 17.04H68.6903V18.992H65.7303V22.208H67.9863V24.192H65.7303V28.064H68.7223V30H62.8663V17.04Z" fill="white"/>
<path d="M70.0226 17.04H75.8466V18.992H72.8866V22.208H75.1426V24.192H72.8866V28.064H75.8786V30H70.0226V17.04Z" fill="white"/>
</svg>
