<svg width="64" height="77" viewBox="0 0 64 77" fill="none" xmlns="http://www.w3.org/2000/svg">
<path d="M62.4154 9.15623L32.6393 0.0951973C32.2228 -0.0317324 31.7782 -0.0317324 31.3613 0.0951973L1.58494 9.15623C0.644205 9.44243 0 10.3207 0 11.3169V44.5406C0 48.8619 1.7246 53.2855 5.12591 57.6885C7.72379 61.0512 11.3177 64.4279 15.808 67.725C23.3512 73.2635 30.7789 76.6612 31.0914 76.803C31.3806 76.9343 31.6903 77 32.0001 77C32.3099 77 32.6197 76.9344 32.9089 76.803C33.2214 76.6612 40.6489 73.2635 48.1922 67.725C52.6823 64.4279 56.2762 61.0512 58.8741 57.6885C62.2754 53.2857 64 48.8621 64 44.5406V11.3169C64.0002 10.3207 63.3561 9.44243 62.4154 9.15623ZM59.5522 44.5406C59.5522 52.1882 51.9874 59.3592 45.6413 64.0284C39.9518 68.2142 34.1818 71.1844 32.0003 72.2514C29.8188 71.1844 24.0486 68.2142 18.3592 64.0284C12.0129 59.3592 4.4479 52.1882 4.4479 44.5406V12.9953L32.0001 4.61098L59.5522 12.9953V44.5406Z" fill="white"/>
<path d="M59.5522 44.5406C59.5522 52.1882 51.9874 59.3592 45.6413 64.0284C39.9518 68.2142 34.1818 71.1844 32.0003 72.2514C29.8188 71.1844 24.0486 68.2142 18.3592 64.0284C12.0129 59.3592 4.4479 52.1882 4.4479 44.5406V12.9953L32.0001 4.61098L59.5522 12.9953V44.5406Z" fill="white"/>
</svg>
